<svg display="none" xmlns="http://www.w3.org/2000/svg">
    <symbol id="facebook"  viewBox="0 0 11 25">
        <g>
           <path d="M10.5252 12.7046H7.31331V24.4715H2.44704V12.7046H0.132629V8.56929H2.44704V5.89326C2.44704 3.97961 3.35606 0.983032 7.35663 0.983032L10.9613 0.998113V5.01216H8.34586C7.91686 5.01216 7.31363 5.2265 7.31363 6.13937V8.57314H10.9503L10.5252 12.7046Z" />
        </g>
    </symbol>

    <symbol id="twitter" viewBox="0 0 22 18">
        <g>
           <path d="M21.0257 2.93593C20.2543 3.27797 19.4246 3.50931 18.5544 3.61263C19.4428 3.08032 20.1247 2.23805 20.4465 1.23278C19.6151 1.72595 18.6939 2.08371 17.7143 2.27655C16.9295 1.4407 15.8113 0.918335 14.5731 0.918335C12.1974 0.918335 10.2706 2.84512 10.2706 5.2208C10.2706 5.55803 10.3088 5.88627 10.3826 6.20136C6.80689 6.022 3.63643 4.30923 1.51424 1.70541C1.14396 2.34073 0.931548 3.08032 0.931548 3.86868C0.931548 5.36102 1.69167 6.67849 2.8455 7.44985C2.14056 7.42771 1.4767 7.23423 0.896895 6.91112C0.896574 6.9294 0.896574 6.94769 0.896574 6.96566C0.896574 9.05032 2.38025 10.7891 4.34811 11.1841C3.98746 11.2829 3.60659 11.3352 3.21482 11.3352C2.93695 11.3352 2.66774 11.3086 2.40528 11.2585C2.95267 12.9674 4.54127 14.2114 6.42442 14.2464C4.95166 15.4005 3.09674 16.0882 1.08043 16.0882C0.733896 16.0882 0.390571 16.0679 0.0546265 16.0278C1.95767 17.249 4.21976 17.961 6.64935 17.961C14.5631 17.961 18.891 11.4051 18.891 5.7191C18.891 5.53268 18.8868 5.3469 18.8784 5.16273C19.7198 4.55629 20.4491 3.79873 21.0257 2.93593Z"/>
        </g>
    </symbol>
    <symbol id="in" viewBox="0 0 21 20">
        <g>
           <path d="M20.7548 12.4483V19.8693H16.4523V12.9456C16.4523 11.2071 15.8311 10.0199 14.2733 10.0199C13.0845 10.0199 12.3783 10.8192 12.0664 11.5931C11.9531 11.8697 11.9239 12.2538 11.9239 12.6417V19.8689H7.62107C7.62107 19.8689 7.67883 8.14254 7.62107 6.9287H11.9242V8.76245C11.9156 8.77689 11.9034 8.79101 11.8957 8.80481H11.9242V8.76245C12.496 7.88263 13.5157 6.62484 15.8019 6.62484C18.6326 6.62484 20.7548 8.47431 20.7548 12.4483ZM3.11995 0.69104C1.64813 0.69104 0.685211 1.65717 0.685211 2.92652C0.685211 4.16892 1.62022 5.16296 3.06348 5.16296H3.09139C4.59209 5.16296 5.52517 4.16892 5.52517 2.92652C5.49661 1.65717 4.59209 0.69104 3.11995 0.69104ZM0.940942 19.8693H5.24217V6.9287H0.940942V19.8693Z"/>
        </g>
    </symbol>
</svg>
